<svg id="Layer_1" data-name="Layer 1" xmlns="http://www.w3.org/2000/svg" viewBox="0 0 72.16 164.02"><defs><style>.cls-1{fill:#fcfcfc;}</style></defs><title>down-arrow</title><path class="cls-1" d="M44.08,150.92c-1.47,0-2.43-.92-3.38-1.87-4.82-4.82-9.62-9.65-14.47-14.44-2-2-3.14-4.09-.77-6.42s4.47-1.13,6.42.86c3.26,3.32,6.72,6.46,9.82,9.92,2,2.21,3.2,1.92,5-.11,3.13-3.44,6.57-6.59,9.82-9.92,2-2,4.13-3,6.42-.64,2.08,2.15,1.24,4.19-.66,6.07q-7.43,7.38-14.81,14.8A4.53,4.53,0,0,1,44.08,150.92Z" transform="translate(-8.12 -8.9)"/><path class="cls-1" d="M43.48,172.92c-.91,0-1.86-.95-2.81-1.89-4.82-4.82-9.62-9.66-14.47-14.44-2-2-3.09-4.11-.71-6.42s4.49-1.05,6.42.93c2.91,3,6.15,5.66,8.73,8.88,2.78,3.47,4.64,2.87,7.2-.18s5.85-5.9,8.75-8.87c2-2.07,4.16-3,6.42-.58,2.06,2.17,1.16,4.2-.72,6.07-5,4.91-9.88,9.87-14.81,14.81A4.84,4.84,0,0,1,43.48,172.92Z" transform="translate(-8.12 -8.9)"/><path class="cls-1" d="M80.12,44C79.83,26.11,65.64,10.91,47.83,9.08A36.16,36.16,0,0,0,9.06,37.24c-1.82,8.42-.36,17-.88,23.87,0,7.88-.09,14.21,0,20.54a36.12,36.12,0,0,0,35.55,35.29c19.57.16,36-15.53,36.36-35Q80.45,63,80.12,44Zm-8,37.7a28,28,0,0,1-55.89-.3c-.13-6.15,0-12.31,0-18.47s-.11-12.31,0-18.47a28,28,0,0,1,55.89-.2Q72.45,63,72.1,81.69Z" transform="translate(-8.12 -8.9)"/><path class="cls-1" d="M48.11,41a63.18,63.18,0,0,1-.05,6.49,3.64,3.64,0,0,1-3.68,3.41,3.59,3.59,0,0,1-4.09-3.48c-.22-4.32-.2-8.66,0-13A3.54,3.54,0,0,1,44,31a3.67,3.67,0,0,1,4.11,3.48A55.94,55.94,0,0,1,48.11,41Z" transform="translate(-8.12 -8.9)"/></svg>